<?xml version="1.0" encoding="UTF-8"?>
<svg version="1.1" xmlns="http://www.w3.org/2000/svg" width="256" height="256">
    <path
        d="M0 0 C18.61124895 15.60753472 31.21675706 35.6586696 33.9375 60.25 C35.49678645 87.71554163 28.03908997 111.0725953 9.6953125 131.78125 C-5.17653104 147.57953625 -26.85371178 157.72031472 -48.59375 158.453125 C-75.83421999 158.88221638 -98.21960013 150.36310791 -118.125 131.625 C-134.8209227 114.53530553 -142.32207206 91.62667315 -142.3112793 68.08764648 C-141.99207264 42.82898448 -130.72872061 21.12638834 -112.89453125 3.703125 C-81.41477195 -23.56485961 -33.10813241 -25.63043895 0 0 Z "
        fill="#15803D" transform="translate(182.0625,57.75)" />
    <path
        d="M0 0 C18.61124895 15.60753472 31.21675706 35.6586696 33.9375 60.25 C35.49678645 87.71554163 28.03908997 111.0725953 9.6953125 131.78125 C-5.17653104 147.57953625 -26.85371178 157.72031472 -48.59375 158.453125 C-75.83421999 158.88221638 -98.21960013 150.36310791 -118.125 131.625 C-134.8209227 114.53530553 -142.32207206 91.62667315 -142.3112793 68.08764648 C-141.99207264 42.82898448 -130.72872061 21.12638834 -112.89453125 3.703125 C-81.41477195 -23.56485961 -33.10813241 -25.63043895 0 0 Z M-112.89453125 22.4140625 C-126.72518697 40.50605538 -131.25569014 60.27939227 -128.79003906 82.73095703 C-125.84470779 102.15095291 -114.57616681 119.39037868 -99.0625 131.25 C-80.0709236 143.93538471 -59.74228225 148.50673766 -37.14257812 144.22216797 C-18.48043514 139.98594913 -1.13893452 128.08517618 9.13671875 111.88671875 C19.80487724 94.24098167 24.63115094 73.12380623 20.0625 52.65625 C14.64533716 32.73051191 1.89583339 15.2842105 -16 4.9375 C-49.15833864 -13.50665816 -88.05488542 -6.1625212 -112.89453125 22.4140625 Z "
        fill="#21C45D" transform="translate(182.0625,57.75)" />
</svg>
