<?xml version="1.0" encoding="UTF-8"?>
<svg id="Layer_1" xmlns="http://www.w3.org/2000/svg" baseProfile="tiny" version="1.2" viewBox="0 0 128 128">
  <!-- Generator: Adobe Illustrator 29.3.0, SVG Export Plug-In . SVG Version: 2.1.0 Build 146)  -->
  <circle cx="64" cy="64" r="45" fill="#d70022"/>
  <path d="M52.57,100.83c3.71,1.12,7.45,1.78,11.43,1.78,21.32,0,38.61-17.28,38.61-38.61s-17.28-38.61-38.61-38.61-38.61,17.28-38.61,38.61c0,16.41,10.31,30.5,24.86,36.06-.35-3.01-.69-7.99,0-11.43l4.44-19.07s-1.12-2.24-1.12-5.79c0-5.33,3.32-9.3,7.1-9.3,3.32,0,4.86,2.43,4.86,5.56,0,3.32-2.2,8.07-3.32,12.62-.66,3.78,2.01,7.1,5.87,7.1,6.87,0,12.2-7.34,12.2-17.68,0-9.27-6.64-15.6-16.18-15.6-10.89,0-17.3,8.11-17.3,16.64,0,3.32,1.08,6.68,2.86,8.88.35.23.35.54.23,1.12l-1.12,4.21c0,.66-.42.89-1.08.42-4.94-2.16-7.8-9.19-7.8-14.86,0-12.2,8.65-23.28,25.33-23.28,13.28,0,23.63,9.54,23.63,22.2s-8.22,23.94-20,23.94c-3.74,0-7.41-2.01-8.72-4.36l-2.59,9.15c-.89,3.32-3.32,7.76-4.98,10.42v-.12Z" fill="#fff"/>
</svg>